# xmcd
#
# Track frame offsets:
#	150
#	63400
#	114967
#	169267
#	219655
#	269950
#
# Disc length: 4319 seconds
#
# Revision: 1
# Processed by: cddbd v1.5.1PL0 Copyright (c) Steve Scherf et al.
# Submitted via: CDex 1.50Beta5
#
DISCID=5c10dd06
DTITLE=さまざまなアーティスト - 聖なる脚
DYEAR=1900
DGENRE=Other
TTITLE0=桑島 法子  団 優太  小柴 亮介/アキオ・ブルース
TTITLE1=AIKO  団 優太/可愛い足
TTITLE2=中村 獅童  YUKO/遠隔操作
TTITLE3=高橋 かおり  団 優太/ダイヤモンドが鳴っている
TTITLE4=高橋 かおり  中村 獅童/歌舞伎町
TTITLE5=YUKO 団 優太/虹を見たかい
EXTD=
EXTT0=
EXTT1=
EXTT2=
EXTT3=
EXTT4=
EXTT5=
PLAYORDER=
